<svg id="图层_1" xmlns="http://www.w3.org/2000/svg" viewBox="0 0 9121.87 7376.52">
  <title>呼和浩特体育中心综合体育馆-修改-01</title>
  <path id="_14948030" d="M1982.46,4418.33V5574.45h-758.4V4418.33Z" style="fill:#fff;stroke:#e1e5ea;stroke-miterlimit:10;stroke-width:8px"/>
  <path id="_14948028" d="M1222.91,6272l5.68-615.25,754.37,3.84L1974.77,6556l-307-1.64Z" style="fill:#fff;stroke:#e1e5ea;stroke-miterlimit:10;stroke-width:8px"/>
  <path id="_15183042" d="M1608,2885.57v1408h-383.9v-1408Z" style="fill:#fff;stroke:#e1e5ea;stroke-miterlimit:10;stroke-width:8px"/>
  <path id="_15185015" d="M6134.77,1130.6V6176.12a128,128,0,0,1-128,128H3023a128,128,0,0,1-128-128V1130.6a128,128,0,0,1,128-128h2983.8A128,128,0,0,1,6134.77,1130.6Z" style="fill:#cfd1d3"/>
  <path id="_14952003" d="M1224.06,2778.33v-1156h758.4v1156Z" style="fill:#fff;stroke:#e1e5ea;stroke-miterlimit:10;stroke-width:8px"/>
  <path id="_15185021" d="M1685.09,605.57l308.7,1.6L1981,1503.33l-758.81-4,8.73-615.82Z" style="fill:#fff;stroke:#e1e5ea;stroke-miterlimit:10;stroke-width:8px"/>
  <path id="_14946044" d="M7778.05,4415V5571.05H7019.62V4415Z" style="fill:#fff;stroke:#e1e5ea;stroke-miterlimit:10;stroke-width:8px"/>
  <path id="_14946046" d="M7773.74,2875.91V4281.62H7017.45V2875.91Z" style="fill:#fff;stroke:#e1e5ea;stroke-miterlimit:10;stroke-width:8px"/>
  <path id="_14948024" d="M7776.13,6276.89V5666.82H7019.84v896.74h242.69Z" style="fill:#fff;stroke:#e1e5ea;stroke-miterlimit:10;stroke-width:8px"/>
  <path id="_15175727" d="M7259.71,645.16H7017v895.6h756.29V931.46Z" style="fill:#fff;stroke:#e1e5ea;stroke-miterlimit:10;stroke-width:8px"/>
  <path id="_15185026" d="M7776.08,1637.57V2793.66h-758.4V1637.58Z" style="fill:#fff;stroke:#e1e5ea;stroke-miterlimit:10;stroke-width:8px"/>
  <path d="M4150.69,3630.08h98.5v38.5q-21,44.51-61.75,84t-104.75,72.5l-29.5-36.5q119-55.5,151.5-120h-80l-1.5,2.5q10,7,20.5,15.75t17.5,15.75l-22.5,31q-6.49-6-18-15.25t-22-17.75q-7.5,8.51-15.75,16.25l-16.75,15.75-27-32.5q29.51-25,49.25-50.25a365.2,365.2,0,0,0,34.25-52.25l39,13Zm327-73v40h-436.5v-40h84v-43h-57.5v-38h8l-31-33.5a405.26,405.26,0,0,0,49.75-48.25,320,320,0,0,0,35.25-49.75l38.5,23q-4.5,7-8.75,13.25t-8.75,12.25h312v40h-55.5v43h50v38h-50v43Zm-352.5-81v-43h-4.5q-10,11.51-20.25,22.25t-21.75,20.75Zm80.5-43h-41v43h41Zm-41,124h41v-43h-41Zm80.5-81h40.5v-43h-40.5Zm0,38v43h40.5v-43Zm152,202.5h77v40.5h-77v57h-44v-57h-100.5v-32l13-46,39.5,4-9,33.5h57v-43h-90v-39h90v-33l44,2v31h71.5v39h-71.5Zm-29.5-283.5h-41v43h41Zm0,81h-41v43h41Z" style="fill:#272829"/>
  <path d="M4825.19,3400.58q13,12,30.25,29t35.5,35.5q18.24,18.51,35.75,37.25t31,34.25l-32,37q-5.5-6-11.75-13.25t-13.25-15.25q-14,.51-40.25,1.25t-59.25,1.75q-33,1-69.5,2.5t-70.5,3q-34,1.5-62.5,3.25t-45.5,3.25l-12.5-52q17-3,25.25-6.25a60.77,60.77,0,0,0,15.75-9.25,389.79,389.79,0,0,0,30-25.75q18-16.74,36.75-36.75t36-41q17.25-21,28.75-38l44.5,25q-12.51,17-28,35.75t-31.5,36.25q-16,17.51-31.25,32t-26.25,23l214.5-7q-18.51-19.5-35.5-36.75t-29-28.75Zm-240.5,199h330v213h-51v-21.5h-228.5v21.5h-50.5Zm50.5,48.5v96h228.5v-96Z" style="fill:#272829"/>
  <path id="_14946046-2" d="M6949.82,1157.54V3760.27H6193.53V1157.54Z" style="fill:#fff;stroke:#e1e5ea;stroke-miterlimit:10;stroke-width:8px"/>
  <path id="_14946046-3" d="M6949.82,3838.52V6157.17H6193.53V3838.52Z" style="fill:#fff;stroke:#e1e5ea;stroke-miterlimit:10;stroke-width:8px"/>
  <path id="_14946046-4" d="M2820.05,1153.54V3756.27H2063.76V1153.54Z" style="fill:#fff;stroke:#e1e5ea;stroke-miterlimit:10;stroke-width:8px"/>
  <path id="_14946046-5" d="M2820.05,3834.52V6153.17H2063.76V3834.52Z" style="fill:#fff;stroke:#e1e5ea;stroke-miterlimit:10;stroke-width:8px"/>
  <path id="_15183042-2" d="M1989.35,3165.71v789.68h-383.9V3165.71Z" style="fill:#fff;stroke:#e1e5ea;stroke-miterlimit:10;stroke-width:8px"/>
</svg>